<svg t="1617331287627" class="icon" viewBox="0 0 1024 1024" version="1.1" xmlns="http://www.w3.org/2000/svg" p-id="5942" width="128" height="128"><path d="M512 512m-512 0a512 512 0 1 0 1024 0 512 512 0 1 0-1024 0Z" fill="#1296db" p-id="5943" data-spm-anchor-id="a313x.7781069.0.i1" class="selected"></path><path d="M394.012444 336.668444c42.808889 2.503111 65.479111 27.704889 67.982223 75.548445v192.682667c35.271111-32.739556 79.36-49.123556 132.238222-49.123556 138.524444 10.069333 214.072889 102.001778 226.645333 275.768889-3.100444 39.224889-10.126222 73.898667-21.077333 104.021333A509.952 509.952 0 0 1 512 1024c-67.043556 0-131.100444-12.885333-189.781333-36.323556v-575.431111c2.531556-47.872 26.453333-73.073778 71.793777-75.576889z m177.550223 347.562667c-67.982222 5.034667-104.533333 50.346667-109.568 135.964445 5.034667 90.680889 41.557333 138.524444 109.568 143.587555 65.479111-5.034667 102.001778-51.626667 109.539555-139.776-7.537778-88.177778-44.088889-134.741333-109.539555-139.776z" fill="#0D0D0F" p-id="5944"></path></svg>